<svg height="512" viewBox="0 0 512 512" width="512" xmlns="http://www.w3.org/2000/svg" xmlns:xlink="http://www.w3.org/1999/xlink"><linearGradient id="a" gradientUnits="userSpaceOnUse" x1="7.168" x2="500.335" y1="504.832" y2="11.665" data-name="New Gradient Swatch 1"><stop offset="0" stop-color="#ee2d50"/><stop offset=".518" stop-color="#ee2d50"/><stop offset="1" stop-color="#ee2d50"/></linearGradient><linearGradient id="c" x1="111.168" x2="604.335" xlink:href="#a" y1="608.832" y2="115.665"/><linearGradient id="d" x1="-118.832" x2="374.335" xlink:href="#a" y1="378.832" y2="-114.335"/><g><path d="m456 112h-130.23l-14.18-42.53a8 8 0 0 0 -7.59-5.47h-96a8 8 0 0 0 -7.59 5.47l-14.18 42.53h-42.23v-16a8 8 0 0 0 -8-8h-8v-16a8 8 0 0 0 -8-8h-32a8 8 0 0 0 -8 8v16h-8a8 8 0 0 0 -8 8v16h-8a48.051 48.051 0 0 0 -48 48v192a48.051 48.051 0 0 0 48 48h400a48.051 48.051 0 0 0 48-48v-192a48.051 48.051 0 0 0 -48-48zm-360-32h16v8h-16zm-16 24h48v8h-48zm408 248a32.036 32.036 0 0 1 -32 32h-400a32.036 32.036 0 0 1 -32-32v-88h120.29a112 112 0 0 0 223.42 0h56.29v88a8 8 0 0 0 8 8h32a8 8 0 0 0 8-8v-88h16zm-328-96a96 96 0 1 1 96 96 96.115 96.115 0 0 1 -96-96zm280 88v-176h16v176zm48-96h-16v-88a8 8 0 0 0 -8-8h-32a8 8 0 0 0 -8 8v88h-56.29a112 112 0 0 0 -223.42 0h-120.29v-88a32.036 32.036 0 0 1 32-32h136a8 8 0 0 0 7.59-5.47l14.18-42.53h84.46l14.18 42.53a8 8 0 0 0 7.59 5.47h136a32.036 32.036 0 0 1 32 32z" fill="url(#a)"/><path d="m256 176a80 80 0 1 0 80 80 80.091 80.091 0 0 0 -80-80zm0 144a64 64 0 1 1 64-64 64.072 64.072 0 0 1 -64 64z" fill="url(#a)"/><path d="m376 320a24 24 0 1 0 24 24 24.027 24.027 0 0 0 -24-24zm0 32a8 8 0 1 1 8-8 8.009 8.009 0 0 1 -8 8z" fill="url(#c)"/><path d="m48 200h80a8 8 0 0 0 8-8v-40a8 8 0 0 0 -8-8h-80a8 8 0 0 0 -8 8v40a8 8 0 0 0 8 8zm8-40h64v24h-64z" fill="url(#d)"/></g></svg>