<svg id="Layer_1" height="512" viewBox="0 0 512 512" width="512" xmlns="http://www.w3.org/2000/svg" xmlns:xlink="http://www.w3.org/1999/xlink" data-name="Layer 1"><linearGradient id="GradientFill_1" gradientUnits="userSpaceOnUse" x1="68.783" x2="419.292" y1="449.71" y2="99.202"><stop offset="0" stop-color="#e81e25"/><stop offset=".108" stop-color="#ea3522"/><stop offset=".416" stop-color="#f1711c"/><stop offset=".678" stop-color="#f59d17"/><stop offset=".881" stop-color="#f8b814"/><stop offset="1" stop-color="#f9c213"/></linearGradient><path d="m330.107 100.729a40.366 40.366 0 1 0 -40.366 40.371 40.412 40.412 0 0 0 40.366-40.371zm-64.732 0a24.366 24.366 0 1 1 24.366 24.371 24.394 24.394 0 0 1 -24.366-24.371zm-124.729 24.125a26.836 26.836 0 1 0 -26.836 26.835 26.868 26.868 0 0 0 26.836-26.835zm-37.671 0a10.836 10.836 0 1 1 10.835 10.835 10.847 10.847 0 0 1 -10.835-10.835zm94.15 146.512v-34.128a18.024 18.024 0 0 0 -18-18h-72.376a18.024 18.024 0 0 0 -18 18v34.128a18.023 18.023 0 0 0 18 18h72.373a18.023 18.023 0 0 0 18.003-18zm-92.379 0v-34.128a2.029 2.029 0 0 1 2-2h72.373a2.029 2.029 0 0 1 2 2v34.128a2.029 2.029 0 0 1 -2 2h-72.37a2.029 2.029 0 0 1 -2.003-2zm245.363 48.834a8 8 0 0 1 -8 8h-200.056a8 8 0 0 1 0-16h200.056a8 8 0 0 1 8 8zm0 47.66a8 8 0 0 1 -8 8h-200.056a8 8 0 0 1 0-16h200.056a8 8 0 0 1 8 8.003zm141.773-148.852a14.691 14.691 0 0 0 -18.078 0l-61.97 46.084h-21.125v-46.682a30.394 30.394 0 0 0 -30.359-30.36h-39.4a92.729 92.729 0 1 0 -62.413 0h-118.029a68.6 68.6 0 1 0 -53.4 0h-10.367a30.394 30.394 0 0 0 -30.359 30.36v14.872h-25.757a8 8 0 0 0 -8 8v60.248a8 8 0 0 0 8 8h25.757v81.87a30.393 30.393 0 0 0 30.359 30.359h61.259l-19.339 72.171a8 8 0 1 0 15.455 4.14l20.448-76.312h158.536l20.448 76.312a8 8 0 1 0 15.452-4.14l-19.338-72.172h30.688a30.393 30.393 0 0 0 30.359-30.358v-34.328h21.124l61.97 46.084a14.69 14.69 0 0 0 18.08 0c4.761-3.541 7.492-9.35 7.492-15.936v-152.275c0-6.587-2.731-12.396-7.493-15.937zm-278.869-118.279a76.729 76.729 0 1 1 76.728 76.73 76.816 76.816 0 0 1 -76.728-76.73zm-151.808 24.125a52.605 52.605 0 1 1 52.605 52.605 52.665 52.665 0 0 1 -52.605-52.605zm-32.58 168.676v-44.248h17.757v44.248zm346.084 97.87a14.375 14.375 0 0 1 -14.359 14.359h-283.609a14.375 14.375 0 0 1 -14.359-14.359v-172.99a14.376 14.376 0 0 1 14.359-14.36h283.609a14.376 14.376 0 0 1 14.359 14.36zm31.773-50.327h-15.773v-59.98h15.773zm76.893 46.148a4.788 4.788 0 0 1 -.644 2.636l-60.249-44.8v-67.94l60.26-44.808a4.893 4.893 0 0 1 .633 2.64z" fill="url(#GradientFill_1)"/></svg>